<mxfile host="app.diagrams.net" modified="2024-04-03T06:43:22.255Z" agent="Mozilla/5.0 (Macintosh; Intel Mac OS X 10_15_7) AppleWebKit/537.36 (KHTML, like Gecko) Chrome/123.0.0.0 Safari/537.36" etag="6mMfN9c_TalCwNOhqHBJ" version="24.0.7" type="device">
  <diagram name="Страница — 1" id="CrJ080NFnx5UMRq6oB-1">
    <mxGraphModel dx="666" dy="423" grid="1" gridSize="10" guides="1" tooltips="1" connect="1" arrows="1" fold="1" page="1" pageScale="1" pageWidth="827" pageHeight="1169" math="0" shadow="0">
      <root>
        <mxCell id="0" />
        <mxCell id="1" parent="0" />
        <mxCell id="icmPHPR5q2C8trYXrLY3-1" value="Студент" style="shape=umlActor;verticalLabelPosition=bottom;verticalAlign=top;html=1;outlineConnect=0;" parent="1" vertex="1">
          <mxGeometry x="80" y="140" width="30" height="60" as="geometry" />
        </mxCell>
        <mxCell id="klcaSzAFblSfFX0HmZ7P-1" style="edgeStyle=orthogonalEdgeStyle;rounded=0;orthogonalLoop=1;jettySize=auto;html=1;exitX=0.5;exitY=1;exitDx=0;exitDy=0;dashed=1;endArrow=none;endFill=0;" edge="1" parent="1" source="icmPHPR5q2C8trYXrLY3-5">
          <mxGeometry relative="1" as="geometry">
            <mxPoint x="280" y="470" as="targetPoint" />
          </mxGeometry>
        </mxCell>
        <mxCell id="icmPHPR5q2C8trYXrLY3-5" value="Слушатель" style="rounded=0;whiteSpace=wrap;html=1;" parent="1" vertex="1">
          <mxGeometry x="220" y="140" width="120" height="60" as="geometry" />
        </mxCell>
        <mxCell id="icmPHPR5q2C8trYXrLY3-6" value="Сервер с данными" style="rounded=0;whiteSpace=wrap;html=1;" parent="1" vertex="1">
          <mxGeometry x="450" y="140" width="120" height="60" as="geometry" />
        </mxCell>
        <mxCell id="icmPHPR5q2C8trYXrLY3-7" value="" style="rounded=0;whiteSpace=wrap;html=1;" parent="1" vertex="1">
          <mxGeometry x="275" y="230" width="10" height="220" as="geometry" />
        </mxCell>
        <mxCell id="icmPHPR5q2C8trYXrLY3-8" value="" style="endArrow=async;html=1;rounded=0;exitX=0.9;exitY=0.05;exitDx=0;exitDy=0;exitPerimeter=0;endFill=1;" parent="1" edge="1">
          <mxGeometry width="50" height="50" relative="1" as="geometry">
            <mxPoint x="99.00000000000011" y="240.9999999999999" as="sourcePoint" />
            <mxPoint x="275" y="241" as="targetPoint" />
          </mxGeometry>
        </mxCell>
        <mxCell id="icmPHPR5q2C8trYXrLY3-9" value="Запрос на запись на семинар" style="text;html=1;align=center;verticalAlign=middle;resizable=0;points=[];autosize=1;strokeColor=none;fillColor=none;" parent="1" vertex="1">
          <mxGeometry x="90" y="250" width="190" height="30" as="geometry" />
        </mxCell>
        <mxCell id="icmPHPR5q2C8trYXrLY3-11" value="" style="endArrow=classic;html=1;rounded=0;exitX=1;exitY=0.05;exitDx=0;exitDy=0;exitPerimeter=0;entryX=0.1;entryY=0.041;entryDx=0;entryDy=0;entryPerimeter=0;" parent="1" source="icmPHPR5q2C8trYXrLY3-7" edge="1">
          <mxGeometry width="50" height="50" relative="1" as="geometry">
            <mxPoint x="300" y="240" as="sourcePoint" />
            <mxPoint x="506" y="239.01999999999998" as="targetPoint" />
          </mxGeometry>
        </mxCell>
        <mxCell id="icmPHPR5q2C8trYXrLY3-12" value="Запрос на историю семинаров" style="text;html=1;align=center;verticalAlign=middle;resizable=0;points=[];autosize=1;strokeColor=none;fillColor=none;" parent="1" vertex="1">
          <mxGeometry x="300" y="240" width="190" height="30" as="geometry" />
        </mxCell>
        <mxCell id="icmPHPR5q2C8trYXrLY3-13" value="" style="endArrow=none;html=1;rounded=0;exitX=1;exitY=0.05;exitDx=0;exitDy=0;exitPerimeter=0;entryX=0.1;entryY=0.041;entryDx=0;entryDy=0;entryPerimeter=0;endFill=0;startArrow=classic;startFill=1;dashed=1;" parent="1" edge="1">
          <mxGeometry width="50" height="50" relative="1" as="geometry">
            <mxPoint x="285" y="322" as="sourcePoint" />
            <mxPoint x="506" y="320" as="targetPoint" />
          </mxGeometry>
        </mxCell>
        <mxCell id="icmPHPR5q2C8trYXrLY3-14" value="История семинаров" style="text;html=1;align=center;verticalAlign=middle;resizable=0;points=[];autosize=1;strokeColor=none;fillColor=none;" parent="1" vertex="1">
          <mxGeometry x="320" y="290" width="130" height="30" as="geometry" />
        </mxCell>
        <mxCell id="icmPHPR5q2C8trYXrLY3-17" value="" style="endArrow=classic;html=1;rounded=0;edgeStyle=orthogonalEdgeStyle;exitX=1.1;exitY=0.541;exitDx=0;exitDy=0;exitPerimeter=0;entryX=1.3;entryY=0.682;entryDx=0;entryDy=0;entryPerimeter=0;" parent="1" edge="1">
          <mxGeometry width="50" height="50" relative="1" as="geometry">
            <mxPoint x="285" y="370.02" as="sourcePoint" />
            <mxPoint x="287" y="401.03999999999996" as="targetPoint" />
            <Array as="points">
              <mxPoint x="339" y="370" />
              <mxPoint x="339" y="401" />
            </Array>
          </mxGeometry>
        </mxCell>
        <mxCell id="icmPHPR5q2C8trYXrLY3-19" value="Определение статуса&lt;div&gt;подготовленности&lt;/div&gt;" style="text;html=1;align=center;verticalAlign=middle;resizable=0;points=[];autosize=1;strokeColor=none;fillColor=none;" parent="1" vertex="1">
          <mxGeometry x="344" y="365" width="140" height="40" as="geometry" />
        </mxCell>
        <mxCell id="icmPHPR5q2C8trYXrLY3-20" value="" style="endArrow=none;html=1;rounded=0;exitX=0.9;exitY=0.05;exitDx=0;exitDy=0;exitPerimeter=0;entryX=0;entryY=0.05;entryDx=0;entryDy=0;entryPerimeter=0;endFill=0;startArrow=classic;startFill=1;dashed=1;" parent="1" edge="1">
          <mxGeometry width="50" height="50" relative="1" as="geometry">
            <mxPoint x="100" y="430" as="sourcePoint" />
            <mxPoint x="276" y="430" as="targetPoint" />
          </mxGeometry>
        </mxCell>
        <mxCell id="icmPHPR5q2C8trYXrLY3-21" value="Результат проверки статуса&lt;div&gt;подготовленности&lt;/div&gt;" style="text;html=1;align=center;verticalAlign=middle;resizable=0;points=[];autosize=1;strokeColor=none;fillColor=none;" parent="1" vertex="1">
          <mxGeometry x="95" y="440" width="180" height="40" as="geometry" />
        </mxCell>
        <mxCell id="klcaSzAFblSfFX0HmZ7P-2" style="edgeStyle=orthogonalEdgeStyle;rounded=0;orthogonalLoop=1;jettySize=auto;html=1;exitX=0.5;exitY=1;exitDx=0;exitDy=0;dashed=1;endArrow=none;endFill=0;" edge="1" parent="1" source="klcaSzAFblSfFX0HmZ7P-4">
          <mxGeometry relative="1" as="geometry">
            <mxPoint x="94" y="460" as="targetPoint" />
            <mxPoint x="94" y="190" as="sourcePoint" />
          </mxGeometry>
        </mxCell>
        <mxCell id="klcaSzAFblSfFX0HmZ7P-3" style="edgeStyle=orthogonalEdgeStyle;rounded=0;orthogonalLoop=1;jettySize=auto;html=1;exitX=0.5;exitY=1;exitDx=0;exitDy=0;dashed=1;endArrow=none;endFill=0;" edge="1" parent="1">
          <mxGeometry relative="1" as="geometry">
            <mxPoint x="509.5" y="470" as="targetPoint" />
            <mxPoint x="509.5" y="200" as="sourcePoint" />
          </mxGeometry>
        </mxCell>
        <mxCell id="klcaSzAFblSfFX0HmZ7P-5" value="" style="edgeStyle=orthogonalEdgeStyle;rounded=0;orthogonalLoop=1;jettySize=auto;html=1;exitX=0.5;exitY=1;exitDx=0;exitDy=0;dashed=1;endArrow=none;endFill=0;" edge="1" parent="1" target="klcaSzAFblSfFX0HmZ7P-4">
          <mxGeometry relative="1" as="geometry">
            <mxPoint x="94" y="460" as="targetPoint" />
            <mxPoint x="94" y="190" as="sourcePoint" />
          </mxGeometry>
        </mxCell>
        <mxCell id="klcaSzAFblSfFX0HmZ7P-4" value="" style="rounded=0;whiteSpace=wrap;html=1;" vertex="1" parent="1">
          <mxGeometry x="90" y="230" width="10" height="220" as="geometry" />
        </mxCell>
        <mxCell id="klcaSzAFblSfFX0HmZ7P-6" value="" style="rounded=0;whiteSpace=wrap;html=1;" vertex="1" parent="1">
          <mxGeometry x="505" y="230" width="10" height="220" as="geometry" />
        </mxCell>
      </root>
    </mxGraphModel>
  </diagram>
</mxfile>
